<?xml version="1.0" encoding="UTF-8"?>
<svg xmlns="http://www.w3.org/2000/svg" style="display: none;">
  <!-- Core Services Icons -->
  <symbol id="icon-quantum" viewBox="0 0 24 24">
    <path d="M12 2C6.48 2 2 6.48 2 12s4.48 10 10 10 10-4.48 10-10S17.52 2 12 2zm0 18c-4.41 0-8-3.59-8-8s3.59-8 8-8 8 3.59 8 8-3.59 8-8 8zm3.5-9c0-2.48-2.02-4.5-4.5-4.5S9.5 9.02 9.5 11.5s2.02 4.5 4.5 4.5 4.5-2.02 4.5-4.5z"/>
    <path d="M12 5.83L6.83 12l5.17 6.17L17.17 18l-5.17-6.17L12 5.83z"/>
  </symbol>

  <symbol id="icon-ai" viewBox="0 0 24 24">
    <path d="M20 11H7.83l5.59-5.59L12 4l-4 4L4 9l6 6 4-4 1.17 1.17L7.83 20H20v-9z"/>
    <path d="M12 2C6.48 2 2 6.48 2 12s4.48 10 10 10 10-4.48 10-10S17.52 2 12 2zm0 18c-4.41 0-8-3.59-8-8s3.59-8 8-8 8 3.59 8 8-3.59 8-8 8z"/>
  </symbol>

  <symbol id="icon-blockchain" viewBox="0 0 24 24">
    <path d="M19 3H5c-1.1 0-2 .9-2 2v14c0 1.1.9 2 2 2h14c1.1 0 2-.9 2-2V5c0-1.1-.9-2-2-2zm-9 14l-5-5 1.41-1.41L10 14.17l7.59-7.59L19 8l-9 9z"/>
    <path d="M17 10l-5-5-5 5H7v2h5v2l5-5h2z"/>
  </symbol>

  <symbol id="icon-security" viewBox="0 0 24 24">
    <path d="M12 1c2.76 0 5 2.24 5 5 0 .65-.13 1.26-.36 1.83l2.92 2.92c1.51-1.26 2.7-2.89 3.43-4.75-1.73-4.39-7.94-7.5-13.43-7.5-5.29 0-9.94 3.44-11.13 8.5h21c-.31-2.86-1.74-5.48-3.87-7.17z"/>
    <path d="M19 13h-6v6h-2v-6H5v-2h6V5h2v6h6v2z"/>
  </symbol>

  <!-- Key Concepts Icons -->
  <symbol id="icon-innovation" viewBox="0 0 24 24">
    <path d="M12 2L2 7l10 5 10-5-10-5zM2 17l10 5 10-5M2 12l10 5 10-5"/>
  </symbol>

  <symbol id="icon-enterprise" viewBox="0 0 24 24">
    <path d="M19 3H5c-1.1 0-2 .9-2 2v14c0 1.1.9 2 2 2h14c1.1 0 2-.9 2-2V5c0-1.1-.9-2-2-2zM9 17H7v-7h2v7zm4 0h-2V7h2v10zm4 0h-2v-4h2v4z"/>
  </symbol>

  <symbol id="icon-technology" viewBox="0 0 24 24">
    <path d="M19 3H5c-1.1 0-2 .9-2 2v14c0 1.1.9 2 2 2h14c1.1 0 2-.9 2-2V5c0-1.1-.9-2-2-2zm-5 14h-4v-2h4v2zm0-4h-4V7h4v6z"/>
  </symbol>

  <!-- Loading Animation -->
  <symbol id="icon-loading" viewBox="0 0 24 24">
    <circle cx="12" cy="12" r="10" fill="none" stroke-width="2" stroke="currentColor"/>
    <circle cx="12" cy="12" r="2" fill="currentColor"/>
  </symbol>
</svg>
