<svg xmlns="http://www.w3.org/2000/svg" xmlns:xlink="http://www.w3.org/1999/xlink" viewBox="0 0 269.15 298"><defs><style>.cls-1{fill:#15489c;}.cls-2{fill:url(#linear-gradient);}.cls-3{fill:url(#linear-gradient-2);}.cls-4{fill:url(#linear-gradient-3);}.cls-5{fill:url(#linear-gradient-4);}</style><linearGradient id="linear-gradient" x1="66.25" y1="148.71" x2="66.25" gradientUnits="userSpaceOnUse"><stop offset="0" stop-color="#3b83c5"/><stop offset="1" stop-color="#15489c"/></linearGradient><linearGradient id="linear-gradient-2" x1="202.9" y1="148.71" x2="202.9" y2="0" xlink:href="#linear-gradient"/><linearGradient id="linear-gradient-3" x1="66.25" y1="298" x2="66.25" y2="149.29" gradientUnits="userSpaceOnUse"><stop offset="0" stop-color="#15489c"/><stop offset="1" stop-color="#3b83c5"/></linearGradient><linearGradient id="linear-gradient-4" x1="202.9" y1="298" x2="202.9" y2="149.29" xlink:href="#linear-gradient-3"/></defs><title>SVG</title><g id="Layer_2" data-name="Layer 2"><g id="Layer_1-2" data-name="Layer 1"><path class="cls-1" d="M132.5,0,91.94,42.73A51.83,51.83,0,0,1,100,45.48a53.14,53.14,0,0,1,16.6,11.4,54,54,0,0,1,15.57,38,54.52,54.52,0,0,1-1.49,12.67A53.28,53.28,0,0,1,79,148.71H1.93l40.18-42.28a52.43,52.43,0,0,1-8.3-2.52A54.14,54.14,0,0,1,15.56,15.75,52.73,52.73,0,0,1,53.15,0H132.5Z"/><path class="cls-2" d="M132.5,0,91.94,42.73A51.83,51.83,0,0,1,100,45.48a53.14,53.14,0,0,1,16.6,11.4,54,54,0,0,1,15.57,38,54.52,54.52,0,0,1-1.49,12.67A53.28,53.28,0,0,1,79,148.71H1.93l40.18-42.28a52.43,52.43,0,0,1-8.3-2.52A54.14,54.14,0,0,1,15.56,15.75,52.73,52.73,0,0,1,53.15,0H132.5Z"/><path class="cls-1" d="M136.65,0l40.56,42.69a52.3,52.3,0,0,0-8.08,2.75,53.37,53.37,0,0,0-16.6,11.4,54.35,54.35,0,0,0-14.07,50.71,53.28,53.28,0,0,0,51.66,41.12h77.1L227,106.43a52.43,52.43,0,0,0,8.3-2.52,53.81,53.81,0,0,0,33.81-50.12,54.58,54.58,0,0,0-1.49-12.67,54,54,0,0,0-14.08-25.37A52.69,52.69,0,0,0,216,0H136.65Z"/><path class="cls-3" d="M136.65,0l40.56,42.69a52.3,52.3,0,0,0-8.08,2.75,53.37,53.37,0,0,0-16.6,11.4,54.35,54.35,0,0,0-14.07,50.71,53.28,53.28,0,0,0,51.66,41.12h77.1L227,106.43a52.43,52.43,0,0,0,8.3-2.52,53.81,53.81,0,0,0,33.81-50.12,54.58,54.58,0,0,0-1.49-12.67,54,54,0,0,0-14.08-25.37A52.69,52.69,0,0,0,216,0H136.65Z"/><path class="cls-1" d="M132.5,298,91.94,255.27a51.83,51.83,0,0,0,8.07-2.75,53.14,53.14,0,0,0,16.6-11.4,54,54,0,0,0,15.57-38,54.52,54.52,0,0,0-1.49-12.67A53.28,53.28,0,0,0,79,149.29H1.93l40.18,42.28a52.43,52.43,0,0,0-8.3,2.52,54.14,54.14,0,0,0-18.25,88.16A52.73,52.73,0,0,0,53.15,298H132.5Z"/><path class="cls-4" d="M132.5,298,91.94,255.27a51.83,51.83,0,0,0,8.07-2.75,53.14,53.14,0,0,0,16.6-11.4,54,54,0,0,0,15.57-38,54.52,54.52,0,0,0-1.49-12.67A53.28,53.28,0,0,0,79,149.29H1.93l40.18,42.28a52.43,52.43,0,0,0-8.3,2.52,54.14,54.14,0,0,0-18.25,88.16A52.73,52.73,0,0,0,53.15,298H132.5Z"/><path class="cls-1" d="M136.65,298l40.56-42.69a52.3,52.3,0,0,1-8.08-2.75,53.37,53.37,0,0,1-16.6-11.4,54.35,54.35,0,0,1-14.07-50.71,53.28,53.28,0,0,1,51.66-41.12h77.1L227,191.57a52.43,52.43,0,0,1,8.3,2.52,53.81,53.81,0,0,1,33.81,50.12,54.58,54.58,0,0,1-1.49,12.67,54,54,0,0,1-14.08,25.37A52.69,52.69,0,0,1,216,298H136.65Z"/><path class="cls-5" d="M136.65,298l40.56-42.69a52.3,52.3,0,0,1-8.08-2.75,53.37,53.37,0,0,1-16.6-11.4,54.35,54.35,0,0,1-14.07-50.71,53.28,53.28,0,0,1,51.66-41.12h77.1L227,191.57a52.43,52.43,0,0,1,8.3,2.52,53.81,53.81,0,0,1,33.81,50.12,54.58,54.58,0,0,1-1.49,12.67,54,54,0,0,1-14.08,25.37A52.69,52.69,0,0,1,216,298H136.65Z"/></g></g></svg>